inDegrees=no
num_controls=7
num_derivatives=13
num_iterations=216
num_multipliers=7
num_parameters=0
num_slacks=7
num_states=26
objective=4.021065
objective_accelerations=0.550795
objective_balance=0.088409
objective_effort=0.465566
objective_height=2.833732
objective_ligament=0.082563
solver_duration=2345.147455
status=Solve_Succeeded
success=true
DataType=double
version=3
OpenSimVersion=4.4-2022-07-23-0e9fedc
endheader
time	/jointset/ground_pelvis/pelvis_tilt/value	/jointset/ground_pelvis/pelvis_tx/value	/jointset/ground_pelvis/pelvis_ty/value	/jointset/hip_l/hip_flexion_l/value	/jointset/hip_l/hip_adduction_l/value	/jointset/hip_l/hip_rotation_l/value	/jointset/back/lumbar_extension/value	/jointset/patellofemoral_l/patellar_flexion_l/value	/jointset/knee_l/knee_flexion_l/value	/jointset/knee_l/knee_adduction_l/value	/jointset/knee_l/knee_rotation_l/value	/jointset/ankle_l/ankle_angle_l/value	/jointset/subtalar_l/subtalar_angle_l/value	/jointset/ground_pelvis/pelvis_tilt/speed	/jointset/ground_pelvis/pelvis_tx/speed	/jointset/ground_pelvis/pelvis_ty/speed	/jointset/hip_l/hip_flexion_l/speed	/jointset/hip_l/hip_adduction_l/speed	/jointset/hip_l/hip_rotation_l/speed	/jointset/back/lumbar_extension/speed	/jointset/patellofemoral_l/patellar_flexion_l/speed	/jointset/knee_l/knee_flexion_l/speed	/jointset/knee_l/knee_adduction_l/speed	/jointset/knee_l/knee_rotation_l/speed	/jointset/ankle_l/ankle_angle_l/speed	/jointset/subtalar_l/subtalar_angle_l/speed	/forceset/tau_hip_flexion_l	/forceset/tau_hip_adduction_l	/forceset/tau_hip_rotation_l	/forceset/tau_knee_flexion_l	/forceset/tau_ankle_angle_l	/forceset/tau_subtalar_angle_l	/forceset/tau_lumbar_extension	lambda_cid13_p0	lambda_cid13_p1	lambda_cid13_p2	lambda_cid13_p3	lambda_cid13_p4	lambda_cid13_p5	lambda_cid14_p0	/jointset/ground_pelvis/pelvis_tilt/accel	/jointset/ground_pelvis/pelvis_tx/accel	/jointset/ground_pelvis/pelvis_ty/accel	/jointset/hip_l/hip_flexion_l/accel	/jointset/hip_l/hip_adduction_l/accel	/jointset/hip_l/hip_rotation_l/accel	/jointset/back/lumbar_extension/accel	/jointset/patellofemoral_l/patellar_flexion_l/accel	/jointset/knee_l/knee_flexion_l/accel	/jointset/knee_l/knee_adduction_l/accel	/jointset/knee_l/knee_rotation_l/accel	/jointset/ankle_l/ankle_angle_l/accel	/jointset/subtalar_l/subtalar_angle_l/accel	gamma_cid13_p0	gamma_cid13_p1	gamma_cid13_p2	gamma_cid13_p3	gamma_cid13_p4	gamma_cid13_p5	gamma_cid14_p0
0	-0.1601488901149274	0.05856775582432022	0.8979981244003846	0.3774920279260975	-0.2591461443346523	-0.2728153421649088	-0.0126506700172305	0.03223623128433507	0.03223623128433527	-0.1745329251994329	0.1743793722016029	-0.04231376238535053	-0.009272369795818195	0	0	0	0	0	0	0	0	0	0	0	0	0	0.1582244153472994	-0.1159580834426222	-0.05535086362273183	-0.3362727277519185	0.3725812921172959	-0.02843121164517256	-0.09703989133850351	79.10388737518507	-6.754010748812335	6.672452392197745	-34.17255487170696	-584.0706092477113	-93.47496135922393	-39.07111336253111	-3.20476953866904	-1.563039943572	-1.106895024648642	13.66598489235323	-0.860492696882366	4.819540525262291	-6.023039337788689	14.07644231939921	14.07644231939846	2.262243493418862	0.06928659873901635	4.46478665295261	0.1139914990291136	-4.488333584855677e-08	5.390613667370469e-07	2.474036387400661e-08	4.259793078096252e-08	1.052639633547478e-07	8.153340133893397e-08	4.334693163196462e-08
0.01	-0.1603021537058364	0.05849064300772761	0.897944169608236	0.378158401244886	-0.259188330619839	-0.2725726671749735	-0.01295289451955131	0.03292525403554387	0.03292525403554364	-0.1744215505040819	0.1743762711731638	-0.04209527948829602	-0.009266957230783766	-0.03046998274811651	-0.01535140846387614	-0.0107578320015717	0.13263543563059	-0.008377772131464848	0.0482633887504193	-0.06001782973160737	0.1371975530153715	0.1371975530153714	0.02217592079206312	-0.0005809502424680952	0.04350803313951097	0.001098099190270404	0.1513143304042233	-0.1131922700085557	-0.05396594864476939	-0.3274482903637707	0.3605848450924697	-0.02565255279108527	-0.09155411005438553	75.28076120228198	-7.330007312770884	6.808397662157663	-31.88902432191972	-585.3488608517065	-93.73745872566639	-39.09028264800622	-2.940714248102585	-1.510509549996328	-1.055237270895437	12.96642805764312	-0.8175903299495899	4.789015798460932	-5.927094180973572	13.45035353927426	13.45035353927471	2.180212877747048	-0.1158673526499782	4.265531749159644	0.1099702822494062	-8.197158209356612e-08	6.224800129256164e-07	1.062012495305519e-07	9.0942370650656e-08	-1.210412774573786e-07	7.20113910506182e-08	4.417330116996088e-08
0.02	-0.1607546374452702	0.05826215245605607	0.8977836344994748	0.3801319499518268	-0.2593125287980745	-0.2718555027478278	-0.01384248519721345	0.03496804066623899	0.03496804066623906	-0.174091417454678	0.1743685443389186	-0.0414473722389045	-0.009250113443201957	-0.05984402970501819	-0.03027554701578353	-0.02131606332250321	0.2614350776304304	-0.01640237860977114	0.09489788744200585	-0.1174732350682879	0.2707527758974684	0.2707527758974718	0.04374970181000633	-0.0009251611613466215	0.08588487046739403	0.002286244509476749	0.1444042454611445	-0.110426456574491	-0.05258103366680175	-0.3186238529756275	0.3485883980676411	-0.02287389393700031	-0.08606832877026729	71.58048270391993	-7.917394572305628	6.934611214603822	-29.90112646726341	-584.8395017753485	-93.78874577843024	-39.14688064757882	-2.985582380426082	-1.477585961178246	-1.066974888520603	12.8988261662033	-0.7898595662506559	4.493762513495741	-5.510554458803326	13.34797629274429	13.34797629274426	2.141815538594878	0.1166344634569297	4.238547490627035	0.1320007248163022	-1.190598283385755e-07	7.05898659114186e-07	1.876621351870972e-07	1.392868105203495e-07	-3.473465182695051e-07	6.248938076230242e-08	4.499967070795714e-08
0.03	-0.1614957837995849	0.05788658202245557	0.8975180819320809	0.3833750111170644	-0.2595149693739791	-0.270681227110963	-0.01529366359262635	0.03832863634664366	0.03832863634664421	-0.1735488472636272	0.1743594122798288	-0.04038126883405094	-0.009220731672566441	-0.08820474806305752	-0.04476324863177083	-0.03179571088217531	0.3865439327696291	-0.02400233951286995	0.1396854087136152	-0.1723598426669802	0.4007540628702181	0.4007540628702122	0.06464349337126955	-0.0008947529143042298	0.1271443623784564	0.003623301420079142	0.1373112610509253	-0.1055282426070764	-0.051166536278436	-0.3105677110442359	0.3375908166057238	-0.02203608169026132	-0.08049448525968925	68.11036152513684	-7.739711541242529	6.981722706586778	-27.92259908697056	-584.4754308875633	-92.17819798033398	-39.23877917349918	-2.734249551847987	-1.42304054821815	-1.03871918224143	12.22191681192655	-0.7326812553706586	4.430469185877792	-5.417323708312951	12.73435129927197	12.73435129927064	2.045172473882071	-0.0527698254060109	4.040935742051616	0.1394055468431125	-1.413333359130418e-07	6.837032150433582e-07	2.567439598139632e-07	1.673958978455752e-07	-5.126144669387867e-07	2.958550819479296e-08	3.732627484318685e-08
0.04	-0.162515123935151	0.05736839891541338	0.8971476809905801	0.3878501611585236	-0.2597909329395209	-0.269067231811005	-0.01728163002360838	0.04297087417672251	0.04297087417672267	-0.1728009368551649	0.1743507815370622	-0.0389083133699456	-0.009177009858292728	-0.1154827859553026	-0.05879808170412102	-0.04228573814388505	0.507852852874764	-0.0311069765372154	0.182841820060595	-0.2248308421821044	0.5270812058322343	0.5270812058322205	0.08481774529213375	-0.0008248978966180565	0.1672552823177498	0.005154253237117679	0.1302182766407046	-0.1006300286396618	-0.04975203889007371	-0.3025115691128447	0.3265932351438062	-0.02119826944352238	-0.07492064174911235	64.75101569407977	-7.571043001398813	7.018420991902818	-26.21880476876904	-582.5084723538257	-90.37467455064105	-39.36325465010749	-2.769046287267234	-1.387012252450819	-1.069050828928133	12.13883915939058	-0.6907947904999824	4.167540528569829	-5.027432842089731	12.61314749059759	12.61314749059782	1.997907610515068	0.1245238175856855	4.008833096273228	0.1707797061035313	-1.633013849582186e-07	6.593301608640891e-07	3.255705460690832e-07	1.950877614069975e-07	-6.766239147391435e-07	-3.800464625895763e-09	2.947762608351415e-08
0.05	-0.1638024092081328	0.05671218024017794	0.8966719415754234	0.3935204412769522	-0.2601353244466829	-0.2670309848477093	-0.0197818274119242	0.04885886990117712	0.04885886990117781	-0.171855106494462	0.1743441729105997	-0.03703971865874493	-0.009116834656893886	-0.141798582527035	-0.0723623585430699	-0.05289076144504364	0.6255738558506846	-0.03766798951909314	0.224125133326161	-0.2748205315076378	0.6499042976656074	0.6499042976656079	0.1042170873657687	-0.0005048192798501019	0.2062758379969405	0.006931116399547237	0.1230589629093821	-0.09665352336101846	-0.04833773871323815	-0.2954309217516611	0.3162610182399136	-0.0193250606255493	-0.06930787045116973	61.62564227962014	-7.852620263267191	7.080754716017061	-24.63239015715131	-580.8557383941228	-89.45474397528544	-39.51684518964244	-2.536494677277937	-1.328601938291212	-1.060657214462169	11.49431776503758	-0.6233814005567143	4.066332165830056	-4.926521381779672	12.02483798863041	12.02483798863237	1.891405374440804	-0.01546468749246049	3.820496148466594	0.1885496353393316	-1.719497941924029e-07	5.398362169589161e-07	3.783922638991722e-07	2.037748840342569e-07	-7.766778825827722e-07	-5.784999416076276e-08	1.435348701065085e-08
0.06	-0.1653475821138621	0.05592282548881817	0.8960892661005047	0.400349048804809	-0.2605422514533685	-0.2645903836637019	-0.02277027857429431	0.05595668613575076	0.05595668613575102	-0.1707191911392914	0.174340522156061	-0.03478655252180743	-0.009037408821065424	-0.1670603125048356	-0.08542529692898647	-0.06367295009630224	0.7395183347603967	-0.04361407644197274	0.2637126642029298	-0.3224815969929529	0.7690453078559093	0.769045307855922	0.1228347441855275	-0.0002333235116745658	0.2441695674651149	0.00900438012304333	0.1158996491780591	-0.0926770180823748	-0.04692343853640778	-0.2883502743904767	0.3059288013360212	-0.01745185180757584	-0.06369509915322778	58.59724859809512	-8.142200802573919	7.134115756940307	-23.2932027909916	-577.8054197810975	-88.36759410450151	-39.69565621676193	-2.558232968480866	-1.286744561844348	-1.104483898948134	11.38353434614894	-0.5678095787003562	3.828384050810395	-4.561708074046068	11.8767311619833	11.87673116198316	1.841570559739856	0.1148072478672011	3.783467854069949	0.2300598183168383	-1.80037376487177e-07	4.163371829600209e-07	4.305400925324177e-07	2.116618070432356e-07	-8.740389881124333e-07	-1.127695681888583e-07	-1.076988496452052e-09
0.07000000000000001	-0.1671407438605705	0.05500535796481087	0.8953975456261625	0.4082994645852543	-0.2610055245784427	-0.2617634380035525	-0.02622324153512398	0.0642285446144872	0.06422854461448733	-0.1694011989680078	0.1743405073904433	-0.03215978725780989	-0.008935670704389071	-0.1914011439706242	-0.09798000091920681	-0.0747214108701343	0.8499437750639744	-0.04892475025415766	0.3013895640941069	-0.3677380220089088	0.8847145555972384	0.8847145555972388	0.1406254317423576	0.0002097922970557609	0.2809959457441346	0.01140444064249871	0.1086614462186034	-0.08836363274596344	-0.04553673807261211	-0.2820832628863748	0.2962989478076276	-0.01579014078621893	-0.05803593523318774	55.75797384739037	-8.366046754900891	7.169002973437446	-21.98701876678948	-575.1558586814332	-87.11036861506494	-39.89522505309913	-2.34636973042268	-1.226559846644526	-1.112743069232348	10.77887819842122	-0.4954249095371172	3.694251280585856	-4.451663740767867	11.32024713851521	11.32024713851344	1.727193256656037	0.005928290588519272	3.604092531361763	0.2540463262751159	-1.79635967197269e-07	2.065503370946457e-07	4.795015525188984e-07	2.029469864294657e-07	-9.188518696832208e-07	-1.95307839114126e-07	-2.459570162007973e-08
0.08	-0.1691721862208957	0.05396499809509465	0.8945937973635557	0.4173355006339273	-0.2615184501670507	-0.2585683416800285	-0.03011757955119273	0.07363874068229859	0.07363874068229814	-0.1679094248405556	0.1743442966915552	-0.0291703842677134	-0.008808118551015126	-0.214716435228206	-0.1100037660707697	-0.08607850774923181	0.9566423884059138	-0.05354456914872506	0.337342796877864	-0.4107566080407659	0.9967128256708673	0.9967128256708557	0.1575911354192459	0.0005274898342888971	0.3166971126849058	0.01416718746256322	0.1014232432591474	-0.08405024740955166	-0.04415003760881756	-0.2758162513822726	0.2866690942792341	-0.01412842976486155	-0.05237677131314833	53.00168173442907	-8.595835677006912	7.195033315724449	-20.89843355601747	-571.3180641984319	-85.71249793880051	-40.11079401196636	-2.35312492683949	-1.18055679411285	-1.16621112000122	10.63816895382127	-0.4296385951768557	3.483650629326415	-4.114140277226282	11.14253562844325	11.14253562844322	1.676573783751504	0.08972359356776224	3.558425586420256	0.3025970784386648	-1.786868810309299e-07	-8.803464375018377e-09	5.282574403346199e-07	1.931610855819701e-07	-9.602745432566616e-07	-2.796279614521142e-07	-4.863623652541866e-08
0.09	-0.1714322997293095	0.05280706537588395	0.893674655959224	0.4274211364922818	-0.2620741776043835	-0.2550233249679655	-0.03443042125794922	0.08415163167287319	0.08415163167287225	-0.1662523132406641	0.1743518301657597	-0.02582930245459023	-0.008651106826615528	-0.2371406208206216	-0.1214896177277448	-0.09781586847433696	1.059872334739863	-0.05747849077330303	0.3713699075989963	-0.4514502955276021	1.105257353050662	1.105257353050648	0.173690361428234	0.0009524679724909814	0.3513321084333066	0.01730342172697671	0.0941486754893764	-0.07989664010674279	-0.04281601856518646	-0.2703392297106347	0.2776289523042788	-0.01223148811438312	-0.04669045339204884	50.41170182555796	-8.940264636963676	7.220329674607739	-19.84403268826367	-567.957398040699	-84.53796890312294	-40.33720539156637	-2.162209099173503	-1.118586870869742	-1.187605576718163	10.07353005167269	-0.3569514408308479	3.318555366020747	-3.992767316980986	10.61921849952258	10.61921849952218	1.55552840034981	0.01478447418862799	3.387961938110624	0.3293203241738716	-1.739796351001403e-07	-2.911416762663428e-07	5.808781528324466e-07	1.712106030097758e-07	-9.684277443769451e-07	-3.89859330690534e-07	-7.974212524311042e-08
